<svg width="53" height="15" viewBox="0 0 53 15" fill="none" xmlns="http://www.w3.org/2000/svg">
<g clip-path="url(#clip0)">
<path d="M35.5971 0.439453H31.5971C31.3618 0.439453 31.1265 0.674747 31.0089 0.91004L29.3618 11.263C29.3618 11.4983 29.4795 11.6159 29.7148 11.6159H31.8324C32.0677 11.6159 32.1853 11.4983 32.1853 11.263L32.6559 8.3218C32.6559 8.0865 32.8912 7.85121 33.2442 7.85121H34.5383C37.2442 7.85121 38.7736 6.55709 39.1265 3.96886C39.3618 2.91004 39.1265 1.96886 38.6559 1.38063C37.95 0.792395 36.8912 0.439453 35.5971 0.439453ZM36.0677 4.3218C35.8324 5.73357 34.7736 5.73357 33.7147 5.73357H33.0089L33.4795 3.02769C33.4795 2.91004 33.5971 2.79239 33.8324 2.79239H34.0677C34.7736 2.79239 35.4795 2.79239 35.8324 3.26298C36.0677 3.38063 36.0677 3.73357 36.0677 4.3218Z" fill="#139AD6"/>
<path d="M6.77362 0.439453H2.77362C2.53833 0.439453 2.30303 0.674747 2.18539 0.91004L0.53833 11.263C0.53833 11.4983 0.655978 11.6159 0.891272 11.6159H2.77362C3.00892 11.6159 3.24421 11.3806 3.36186 11.1453L3.83245 8.3218C3.83245 8.0865 4.06774 7.85121 4.42068 7.85121H5.7148C8.42068 7.85121 9.95009 6.55709 10.303 3.96886C10.5383 2.91004 10.303 1.96886 9.83244 1.38063C9.12656 0.792395 8.18538 0.439453 6.77362 0.439453ZM7.24421 4.3218C7.00891 5.73357 5.95009 5.73357 4.89127 5.73357H4.30303L4.77362 3.02769C4.77362 2.91004 4.89127 2.79239 5.12656 2.79239H5.36186C6.06774 2.79239 6.77362 2.79239 7.12656 3.26298C7.24421 3.38063 7.36185 3.73357 7.24421 4.3218Z" fill="#263B80"/>
<path d="M18.8913 4.20404H17.009C16.8913 4.20404 16.656 4.32169 16.656 4.43934L16.5384 5.02757L16.4207 4.79228C15.9501 4.20404 15.1266 3.96875 14.1854 3.96875C12.0678 3.96875 10.1854 5.61581 9.83249 7.8511C9.5972 9.02757 9.95014 10.0864 10.5384 10.7923C11.1266 11.4982 11.9501 11.7335 13.009 11.7335C14.7737 11.7335 15.7148 10.6746 15.7148 10.6746L15.5972 11.2629C15.5972 11.4982 15.7148 11.6158 15.9501 11.6158H17.7148C17.9501 11.6158 18.1854 11.3805 18.3031 11.1452L19.3619 4.55698C19.2442 4.43934 19.009 4.20404 18.8913 4.20404ZM16.1854 7.96875C15.9501 9.02757 15.1266 9.8511 13.9501 9.8511C13.3619 9.8511 12.8913 9.61581 12.656 9.38051C12.4207 9.02757 12.3031 8.55698 12.3031 7.96875C12.4207 6.90992 13.3619 6.0864 14.4207 6.0864C15.009 6.0864 15.3619 6.32169 15.7148 6.55698C16.0678 6.90992 16.1854 7.49816 16.1854 7.96875Z" fill="#263B80"/>
<path d="M47.5971 4.20404H45.7148C45.5971 4.20404 45.3618 4.32169 45.3618 4.43934L45.2442 5.02757L45.1265 4.79228C44.6559 4.20404 43.8324 3.96875 42.8912 3.96875C40.7736 3.96875 38.8912 5.61581 38.5383 7.8511C38.303 9.02757 38.6559 10.0864 39.2442 10.7923C39.8324 11.4982 40.6559 11.7335 41.7148 11.7335C43.4795 11.7335 44.4206 10.6746 44.4206 10.6746L44.303 11.2629C44.303 11.4982 44.4206 11.6158 44.6559 11.6158H46.4206C46.6559 11.6158 46.8912 11.3805 47.0089 11.1452L48.0677 4.55698C47.95 4.43934 47.8324 4.20404 47.5971 4.20404ZM44.8912 7.96875C44.6559 9.02757 43.8324 9.8511 42.6559 9.8511C42.0677 9.8511 41.5971 9.61581 41.3618 9.38051C41.1265 9.02757 41.0089 8.55698 41.0089 7.96875C41.1265 6.90992 42.0677 6.0864 43.1265 6.0864C43.7148 6.0864 44.0677 6.32169 44.4206 6.55698C44.8912 6.90992 45.0089 7.49816 44.8912 7.96875Z" fill="#139AD6"/>
<path d="M29.1265 4.2041H27.1265C26.8912 4.2041 26.7735 4.32175 26.6559 4.43939L24.0676 8.43939L22.8912 4.67469C22.7735 4.4394 22.6559 4.32175 22.3029 4.32175H20.4206C20.1853 4.32175 20.0676 4.55704 20.0676 4.79234L22.1853 11.0276L20.1853 13.8512C20.0676 14.0864 20.1853 14.4394 20.4206 14.4394H22.3029C22.5382 14.4394 22.6559 14.3217 22.7735 14.2041L29.2441 4.90998C29.597 4.55704 29.3617 4.2041 29.1265 4.2041Z" fill="#263B80"/>
<path d="M49.8324 0.792434L48.1853 11.3807C48.1853 11.616 48.3029 11.7336 48.5382 11.7336H50.1853C50.4206 11.7336 50.6559 11.4983 50.7735 11.263L52.4206 0.91008C52.4206 0.674786 52.3029 0.55714 52.0676 0.55714H50.1853C50.0676 0.439493 49.95 0.557141 49.8324 0.792434Z" fill="#139AD6"/>
</g>
<defs>
<clipPath id="clip0">
<rect width="51.8823" height="14" fill="white" transform="translate(0.53833 0.439453)"/>
</clipPath>
</defs>
</svg>
